<svg width="512" height="512" viewBox="0 0 512 512" fill="none" xmlns="http://www.w3.org/2000/svg">
<rect width="512" height="512" rx="60" fill="#022C43"/>
<path d="M163.963 387V168.818H210.092V348.967H303.629V387H163.963Z" fill="#FFD700"/>
<path d="M216.963 342V123.818H303.043C319.52 123.818 333.582 126.766 345.23 132.661C356.949 138.484 365.862 146.759 371.97 157.483C378.149 168.136 381.239 180.672 381.239 195.089C381.239 209.578 378.114 222.043 371.864 232.483C365.614 242.852 356.558 250.807 344.697 256.347C332.908 261.886 318.632 264.656 301.871 264.656H244.236V227.582H294.413C303.22 227.582 310.536 226.375 316.359 223.96C322.183 221.545 326.516 217.923 329.357 213.094C332.268 208.264 333.724 202.263 333.724 195.089C333.724 187.845 332.268 181.737 329.357 176.766C326.516 171.794 322.148 168.03 316.253 165.473C310.429 162.845 303.078 161.531 294.2 161.531H263.092V342H216.963ZM334.79 242.71L389.016 342H338.092L285.038 242.71H334.79Z" fill="#FFD700"/>
</svg>
